<svg xmlns="http://www.w3.org/2000/svg" data-name="Layer 1" viewBox="0 0 64 64"><rect width="58" height="46" x="3" y="9" fill="#fbbc05" rx="4" ry="4" transform="rotate(90 32 32)" class="color808080 svgShape"></rect><path fill="#34a853" d="M54.87 6H9.13A4 4 0 0 1 13 3h38a4 4 0 0 1 3.87 3Z" class="color6b6b6b svgShape"></path><path fill="#d8dfeb" d="M28.85 18h6.3A6.85 6.85 0 0 1 42 24.85V36a10 10 0 0 1-10 10 10 10 0 0 1-10-10V24.85A6.85 6.85 0 0 1 28.85 18Z" class="colorebe3d8 svgShape"></path><path fill="#4285f4" d="M35.15 18h-6.3A6.87 6.87 0 0 0 22 24.85v3A6.87 6.87 0 0 1 28.85 21h6.3A6.87 6.87 0 0 1 42 27.85v-3A6.87 6.87 0 0 0 35.15 18Z" class="colorc9bdb1 svgShape"></path><rect width="4" height="8" x="30" y="23" fill="#ea4335" rx="2" ry="2" class="colorfc7a71 svgShape"></rect><path fill="#0a2712" d="M51 2H13a5 5 0 0 0-5 5v50a5 5 0 0 0 5 5h38a5 5 0 0 0 5-5V7a5 5 0 0 0-5-5Zm3 55a3 3 0 0 1-3 3H13a3 3 0 0 1-3-3V7a3 3 0 0 1 3-3h38a3 3 0 0 1 3 3Z" class="color0a1827 svgShape"></path><path fill="#0a2712" d="M35.15 17h-6.3A7.86 7.86 0 0 0 21 24.85V36a11 11 0 0 0 22 0V24.85A7.86 7.86 0 0 0 35.15 17ZM32 24a1 1 0 0 1 1 1v4a1 1 0 0 1-2 0v-4a1 1 0 0 1 1-1Zm9 12a9 9 0 0 1-18 0V24.85A5.85 5.85 0 0 1 28.85 19H31v3.18A3 3 0 0 0 29 25v4a3 3 0 0 0 6 0v-4a3 3 0 0 0-2-2.82V19h2.15A5.85 5.85 0 0 1 41 24.85Z" class="color0a1827 svgShape"></path><path fill="#0a2712" d="M32 33a1 1 0 0 0-1 1v1a1 1 0 0 0 2 0v-1a1 1 0 0 0-1-1Z" class="color0a1827 svgShape"></path></svg>